<svg width="317" height="317" viewBox="0 0 317 317" fill="none" xmlns="http://www.w3.org/2000/svg">
<path d="M122.5 9.52628L178.978 42.134C183 44.4562 185.478 48.7479 185.478 53.3923V118.608C185.478 123.252 183 127.544 178.978 129.866L122.5 162.474C118.478 164.796 113.522 164.796 109.5 162.474L53.0218 129.866C48.9996 127.544 46.5218 123.252 46.5218 118.608V53.3923C46.5218 48.7479 48.9996 44.4562 53.0218 42.134L109.5 9.52628C113.522 7.20405 118.478 7.20405 122.5 9.52628Z" stroke="#F4F4F5" stroke-width="10"/>
<path d="M208.5 154.526L264.978 187.134C269 189.456 271.478 193.748 271.478 198.392V263.608C271.478 268.252 269 272.544 264.978 274.866L208.5 307.474C204.478 309.796 199.522 309.796 195.5 307.474L139.022 274.866C135 272.544 132.522 268.252 132.522 263.608V198.392C132.522 193.748 135 189.456 139.022 187.134L195.5 154.526C199.522 152.204 204.478 152.204 208.5 154.526Z" stroke="#F4F4F5" stroke-width="10"/>
<path d="M146.686 100.787L136.616 111.278C136.397 111.506 136.132 111.688 135.838 111.812C135.544 111.936 135.226 112 134.905 112H87.169C86.9413 112 86.7185 111.935 86.528 111.814C86.3375 111.693 86.1877 111.52 86.0969 111.317C86.0061 111.114 85.9783 110.89 86.0169 110.672C86.0556 110.454 86.1589 110.251 86.3143 110.089L96.3918 99.598C96.6101 99.3707 96.8741 99.1894 97.1675 99.0652C97.4609 98.941 97.7773 98.8767 98.0974 98.8762H145.831C146.059 98.8762 146.281 98.9409 146.472 99.0622C146.662 99.1835 146.812 99.3563 146.903 99.5592C146.994 99.7622 147.022 99.9864 146.983 100.204C146.944 100.423 146.841 100.625 146.686 100.787ZM136.616 79.6599C136.397 79.432 136.132 79.2503 135.838 79.1261C135.544 79.002 135.226 78.9379 134.905 78.9381H87.169C86.9413 78.9381 86.7185 79.0027 86.528 79.1241C86.3375 79.2455 86.1877 79.4182 86.0969 79.6211C86.0061 79.8241 85.9783 80.0483 86.0169 80.2664C86.0556 80.4845 86.1589 80.6868 86.3143 80.8486L96.3918 91.3401C96.6101 91.5674 96.8741 91.7487 97.1675 91.8729C97.4609 91.997 97.7773 92.0614 98.0974 92.0619H145.831C146.059 92.0619 146.281 91.9973 146.472 91.8759C146.662 91.7545 146.812 91.5818 146.903 91.3789C146.994 91.1759 147.022 90.9517 146.983 90.7336C146.944 90.5155 146.841 90.3132 146.686 90.1514L136.616 79.6599ZM87.169 72.1238H134.905C135.226 72.1239 135.544 72.06 135.838 71.9358C136.132 71.8116 136.397 71.6299 136.616 71.402L146.686 60.9105C146.841 60.7487 146.944 60.5464 146.983 60.3283C147.022 60.1102 146.994 59.886 146.903 59.683C146.812 59.4801 146.662 59.3073 146.472 59.186C146.281 59.0647 146.059 59 145.831 59H98.0974C97.7773 59.0005 97.4609 59.0649 97.1675 59.189C96.8741 59.3132 96.6101 59.4945 96.3918 59.7218L86.3169 70.2133C86.1617 70.3749 86.0584 70.5771 86.0196 70.7948C85.9809 71.0127 86.0085 71.2368 86.099 71.4396C86.1894 71.6425 86.3389 71.8152 86.529 71.9368C86.719 72.0583 86.9415 72.1233 87.169 72.1238Z" fill="#F4F4F5"/>
<path d="M176 255.28V218.16H185.792V255.28H176ZM176 215.856V206H185.792V215.856H176Z" fill="#F4F4F5"/>
<path d="M199.361 255.28C197.655 255.28 196.098 254.853 194.69 254C193.282 253.147 192.151 252.016 191.298 250.608C190.487 249.2 190.082 247.664 190.082 246V227.44C190.082 225.776 190.487 224.24 191.298 222.832C192.151 221.424 193.282 220.293 194.69 219.44C196.098 218.587 197.655 218.16 199.361 218.16H217.986V206H227.778V255.28H199.361ZM199.938 245.488H217.986V227.952H199.938V245.488Z" fill="#F4F4F5"/>
</svg>
