<svg width="258" height="317" viewBox="0 0 258 317" fill="none" xmlns="http://www.w3.org/2000/svg">
<path d="M92.5 9.52628L148.978 42.134C153 44.4562 155.478 48.7479 155.478 53.3923V118.608C155.478 123.252 153 127.544 148.978 129.866L92.5 162.474C88.4778 164.796 83.5222 164.796 79.5 162.474L23.0218 129.866C18.9996 127.544 16.5218 123.252 16.5218 118.608V53.3923C16.5218 48.7479 18.9996 44.4562 23.0218 42.134L79.5 9.52628C83.5222 7.20405 88.4778 7.20405 92.5 9.52628Z" stroke="#18181B" stroke-width="10"/>
<path d="M178.5 154.526L234.978 187.134C239 189.456 241.478 193.748 241.478 198.392V263.608C241.478 268.252 239 272.544 234.978 274.866L178.5 307.474C174.478 309.796 169.522 309.796 165.5 307.474L109.022 274.866C105 272.544 102.522 268.252 102.522 263.608V198.392C102.522 193.748 105 189.456 109.022 187.134L165.5 154.526C169.522 152.204 174.478 152.204 178.5 154.526Z" stroke="#18181B" stroke-width="10"/>
<path d="M116.686 100.787L106.616 111.278C106.397 111.506 106.132 111.688 105.838 111.812C105.544 111.936 105.226 112 104.905 112H57.169C56.9413 112 56.7185 111.935 56.528 111.814C56.3375 111.693 56.1877 111.52 56.0969 111.317C56.0061 111.114 55.9783 110.89 56.0169 110.672C56.0556 110.454 56.1589 110.251 56.3143 110.089L66.3918 99.598C66.6101 99.3707 66.8741 99.1894 67.1675 99.0652C67.4609 98.941 67.7773 98.8767 68.0974 98.8762H115.831C116.059 98.8762 116.281 98.9409 116.472 99.0622C116.662 99.1835 116.812 99.3563 116.903 99.5592C116.994 99.7622 117.022 99.9864 116.983 100.204C116.944 100.423 116.841 100.625 116.686 100.787ZM106.616 79.6599C106.397 79.432 106.132 79.2503 105.838 79.1261C105.544 79.002 105.226 78.9379 104.905 78.9381H57.169C56.9413 78.9381 56.7185 79.0027 56.528 79.1241C56.3375 79.2455 56.1877 79.4182 56.0969 79.6211C56.0061 79.8241 55.9783 80.0483 56.0169 80.2664C56.0556 80.4845 56.1589 80.6868 56.3143 80.8486L66.3918 91.3401C66.6101 91.5674 66.8741 91.7487 67.1675 91.8729C67.4609 91.997 67.7773 92.0614 68.0974 92.0619H115.831C116.059 92.0619 116.281 91.9973 116.472 91.8759C116.662 91.7545 116.812 91.5818 116.903 91.3789C116.994 91.1759 117.022 90.9517 116.983 90.7336C116.944 90.5155 116.841 90.3132 116.686 90.1514L106.616 79.6599ZM57.169 72.1238H104.905C105.226 72.1239 105.544 72.06 105.838 71.9358C106.132 71.8116 106.397 71.6299 106.616 71.402L116.686 60.9105C116.841 60.7487 116.944 60.5464 116.983 60.3283C117.022 60.1102 116.994 59.886 116.903 59.683C116.812 59.4801 116.662 59.3073 116.472 59.186C116.281 59.0647 116.059 59 115.831 59H68.0974C67.7773 59.0005 67.4609 59.0649 67.1675 59.189C66.8741 59.3132 66.6101 59.4945 66.3918 59.7218L56.3169 70.2133C56.1617 70.3749 56.0584 70.5771 56.0196 70.7948C55.9809 71.0127 56.0085 71.2368 56.099 71.4396C56.1894 71.6425 56.3389 71.8152 56.529 71.9368C56.719 72.0583 56.9415 72.1233 57.169 72.1238Z" fill="#18181B"/>
<path d="M146 255.28V218.16H155.792V255.28H146ZM146 215.856V206H155.792V215.856H146Z" fill="#18181B"/>
<path d="M169.361 255.28C167.655 255.28 166.098 254.853 164.69 254C163.282 253.147 162.151 252.016 161.298 250.608C160.487 249.2 160.082 247.664 160.082 246V227.44C160.082 225.776 160.487 224.24 161.298 222.832C162.151 221.424 163.282 220.293 164.69 219.44C166.098 218.587 167.655 218.16 169.361 218.16H187.986V206H197.778V255.28H169.361ZM169.938 245.488H187.986V227.952H169.938V245.488Z" fill="#18181B"/>
</svg>
